<svg xmlns="http://www.w3.org/2000/svg" viewBox="0 0 1200 900" role="img" aria-labelledby="title desc">
  <title id="title">Uzay temalı 4 yaş erkek çocuk doğum günü konsepti</title>
  <desc id="desc">Lacivert, kömür ve hardal tonlarında gezegenler, yıldızlar ve sade bir pasta masası illüstrasyonu.</desc>
  <defs>
    <linearGradient id="bg" x1="0" y1="0" x2="0" y2="1"><stop stop-color="#2f3547"/><stop offset="1" stop-color="#4a4f5e"/></linearGradient>
  </defs>
  <rect width="1200" height="900" fill="url(#bg)"/>
  <g fill="#f3e6c3">
    <circle cx="120" cy="120" r="4"/><circle cx="300" cy="80" r="3"/><circle cx="520" cy="150" r="5"/><circle cx="760" cy="60" r="3"/><circle cx="980" cy="130" r="4"/><circle cx="1100" cy="260" r="3"/><circle cx="180" cy="320" r="3"/><circle cx="640" cy="260" r="3"/><circle cx="900" cy="330" r="5"/><circle cx="420" cy="360" r="3"/>
  </g>
  <circle cx="960" cy="200" r="74" fill="#d9a441"/><ellipse cx="960" cy="200" rx="118" ry="22" fill="none" stroke="#f3e6c3" stroke-width="8" transform="rotate(-18 960 200)"/>
  <circle cx="240" cy="230" r="46" fill="#c9cdd6"/><circle cx="228" cy="218" r="9" fill="#a5aab5"/><circle cx="256" cy="244" r="6" fill="#a5aab5"/>
  <path d="M0 660Q300 600 600 660T1200 660V900H0Z" fill="#5d6273"/>
  <rect x="270" y="600" width="660" height="40" rx="20" fill="#e4dccb"/><rect x="316" y="632" width="40" height="268" fill="#c8bea9"/><rect x="844" y="632" width="40" height="268" fill="#c8bea9"/>
  <ellipse cx="600" cy="585" rx="150" ry="24" fill="#3b4052"/>
  <rect x="510" y="465" width="180" height="115" rx="26" fill="#f6f1e6"/><rect x="535" y="400" width="130" height="80" rx="22" fill="#e8e1d2"/>
  <path d="M600 335l14 30 32 4-24 22 6 32-28-16-28 16 6-32-24-22 32-4z" fill="#d9a441"/>
  <circle cx="390" cy="530" r="34" fill="#d9a441"/><circle cx="810" cy="530" r="34" fill="#9aa3b8"/><circle cx="450" cy="565" r="22" fill="#f3e6c3"/><circle cx="750" cy="565" r="22" fill="#f3e6c3"/>
  <path d="M150 560 l70 -130 70 130z" fill="#d9a441"/><path d="M1050 560 l-70 -130 -70 130z" fill="#9aa3b8"/>
</svg>
